<svg xmlns="http://www.w3.org/2000/svg" viewBox="0 0 64 64" fill="none"><path d="M20 39C23 24 37 22 38 9M45 40C48 27 38 23 38 9" stroke="#627150" stroke-width="3.8" stroke-linecap="round"/><path d="M38 10C49 3 58 11 56 17C47 21 41 17 38 10Z" fill="#627150"/><path d="M38 11C30 5 24 9 25 14C30 18 35 15 38 11Z" fill="#a6ad87"/><path d="M32 44c0 10-6 16-14 16S5 53 5 44s6-15 13-12c8-3 14 3 14 12Z" fill="#a95058"/><path d="M59 46c0 9-6 15-14 15s-13-6-13-15 6-14 13-11c8-3 14 2 14 11Z" fill="#c77769"/><path d="M11 41c1-3 3-5 5-5m23 8c1-3 3-5 5-5" stroke="#ffebc3" stroke-width="3" stroke-linecap="round"/></svg>
